<svg version="1.0" xmlns="http://www.w3.org/2000/svg"
 width="32.000000pt" height="52.000000pt" viewBox="0 0 32.000000 52.000000"
 preserveAspectRatio="xMidYMid meet">
<g transform="translate(0.000000,52.000000) scale(0.100000,-0.100000)"
fill="#ffbe72" stroke="none">
<path d="M63 488 c-48 -53 -66 -123 -42 -171 6 -12 36 -45 67 -74 l56 -51 -13
-50 c-11 -43 -10 -54 3 -81 9 -17 24 -34 34 -39 30 -16 89 -23 114 -13 58 22
35 81 -32 81 -48 0 -51 5 -34 47 22 51 5 90 -66 156 -34 31 -60 64 -60 75 0
10 11 36 25 56 28 41 31 56 13 74 -18 18 -42 14 -65 -10z"/>
</g>
</svg>